# xmcd
#
# Track frame offsets: 
#        150
#        15530
#        26636
#        40401
#        53611
#        65172
#        78924
#        92665
#        103165
#        119878
#        133091
#        145782
#
# Disc length: 2155 seconds
#
# Revision: 0
# Processed by: cddbd v1.5.1PL2 Copyright (c) Steve Scherf et al.
# Submitted via: ExactAudioCopy v0.95a5
#
DISCID=a808690c
DTITLE=Randy Cornor - Limited Edition Collection Volume 4
DYEAR=2001
DGENRE=Country
TTITLE0=Shame On Me Shane on You
TTITLE1=Why Don't you Just Leave Me Alone
TTITLE2=Heart Don't Fail Me Now
TTITLE3=Maybe You Should've Been Listening
TTITLE4=Heart As Big As Texas
TTITLE5=Saddle My Dreams
TTITLE6=Some Ladies Don't Love Cowboys
TTITLE7=They're Heroes Every One
TTITLE8=Sidewalks of Chicago
TTITLE9=Wastin' My Time
TTITLE10=If You Loved Me
TTITLE11=Sad Eyes
EXTD=
EXTT0=
EXTT1=
EXTT2=
EXTT3=
EXTT4=
EXTT5=
EXTT6=
EXTT7=
EXTT8=
EXTT9=
EXTT10=
EXTT11=
PLAYORDER=
